<svg class="rich-terminal" viewBox="0 0 1482 904.0" xmlns="http://www.w3.org/2000/svg">
    <!-- Generated with Rich https://www.textualize.io -->
    <style>

    @font-face {
        font-family: "Fira Code";
        src: local("FiraCode-Regular"),
                url("https://cdnjs.cloudflare.com/ajax/libs/firacode/6.2.0/woff2/FiraCode-Regular.woff2") format("woff2"),
                url("https://cdnjs.cloudflare.com/ajax/libs/firacode/6.2.0/woff/FiraCode-Regular.woff") format("woff");
        font-style: normal;
        font-weight: 400;
    }
    @font-face {
        font-family: "Fira Code";
        src: local("FiraCode-Bold"),
                url("https://cdnjs.cloudflare.com/ajax/libs/firacode/6.2.0/woff2/FiraCode-Bold.woff2") format("woff2"),
                url("https://cdnjs.cloudflare.com/ajax/libs/firacode/6.2.0/woff/FiraCode-Bold.woff") format("woff");
        font-style: bold;
        font-weight: 700;
    }

    .terminal-2311969643-matrix {
        font-family: Fira Code, monospace;
        font-size: 20px;
        line-height: 24.4px;
        font-variant-east-asian: full-width;
    }

    .terminal-2311969643-title {
        font-size: 18px;
        font-weight: bold;
        font-family: arial;
    }

    .terminal-2311969643-r1 { fill: #c5c8c6 }
.terminal-2311969643-r2 { fill: #888888 }
.terminal-2311969643-r3 { fill: #62626e }
.terminal-2311969643-r4 { fill: #888888;font-weight: bold }
.terminal-2311969643-r5 { fill: #a13854 }
.terminal-2311969643-r6 { fill: #0f3460 }
.terminal-2311969643-r7 { fill: #e0e0e0 }
.terminal-2311969643-r8 { fill: #6e7587 }
.terminal-2311969643-r9 { fill: #3e3e3e }
.terminal-2311969643-r10 { fill: #1a1a2e;font-weight: bold }
.terminal-2311969643-r11 { fill: #9c9ca3 }
.terminal-2311969643-r12 { fill: #58d1eb;font-weight: bold }
.terminal-2311969643-r13 { fill: #003054 }
.terminal-2311969643-r14 { fill: #1e1e1e }
.terminal-2311969643-r15 { fill: #f4005f }
.terminal-2311969643-r16 { fill: #ffa62b;font-weight: bold }
.terminal-2311969643-r17 { fill: #3e475e }
    </style>

    <defs>
    <clipPath id="terminal-2311969643-clip-terminal">
      <rect x="0" y="0" width="1463.0" height="853.0" />
    </clipPath>
    <clipPath id="terminal-2311969643-line-0">
    <rect x="0" y="1.5" width="1464" height="24.65"/>
            </clipPath>
<clipPath id="terminal-2311969643-line-1">
    <rect x="0" y="25.9" width="1464" height="24.65"/>
            </clipPath>
<clipPath id="terminal-2311969643-line-2">
    <rect x="0" y="50.3" width="1464" height="24.65"/>
            </clipPath>
<clipPath id="terminal-2311969643-line-3">
    <rect x="0" y="74.7" width="1464" height="24.65"/>
            </clipPath>
<clipPath id="terminal-2311969643-line-4">
    <rect x="0" y="99.1" width="1464" height="24.65"/>
            </clipPath>
<clipPath id="terminal-2311969643-line-5">
    <rect x="0" y="123.5" width="1464" height="24.65"/>
            </clipPath>
<clipPath id="terminal-2311969643-line-6">
    <rect x="0" y="147.9" width="1464" height="24.65"/>
            </clipPath>
<clipPath id="terminal-2311969643-line-7">
    <rect x="0" y="172.3" width="1464" height="24.65"/>
            </clipPath>
<clipPath id="terminal-2311969643-line-8">
    <rect x="0" y="196.7" width="1464" height="24.65"/>
            </clipPath>
<clipPath id="terminal-2311969643-line-9">
    <rect x="0" y="221.1" width="1464" height="24.65"/>
            </clipPath>
<clipPath id="terminal-2311969643-line-10">
    <rect x="0" y="245.5" width="1464" height="24.65"/>
            </clipPath>
<clipPath id="terminal-2311969643-line-11">
    <rect x="0" y="269.9" width="1464" height="24.65"/>
            </clipPath>
<clipPath id="terminal-2311969643-line-12">
    <rect x="0" y="294.3" width="1464" height="24.65"/>
            </clipPath>
<clipPath id="terminal-2311969643-line-13">
    <rect x="0" y="318.7" width="1464" height="24.65"/>
            </clipPath>
<clipPath id="terminal-2311969643-line-14">
    <rect x="0" y="343.1" width="1464" height="24.65"/>
            </clipPath>
<clipPath id="terminal-2311969643-line-15">
    <rect x="0" y="367.5" width="1464" height="24.65"/>
            </clipPath>
<clipPath id="terminal-2311969643-line-16">
    <rect x="0" y="391.9" width="1464" height="24.65"/>
            </clipPath>
<clipPath id="terminal-2311969643-line-17">
    <rect x="0" y="416.3" width="1464" height="24.65"/>
            </clipPath>
<clipPath id="terminal-2311969643-line-18">
    <rect x="0" y="440.7" width="1464" height="24.65"/>
            </clipPath>
<clipPath id="terminal-2311969643-line-19">
    <rect x="0" y="465.1" width="1464" height="24.65"/>
            </clipPath>
<clipPath id="terminal-2311969643-line-20">
    <rect x="0" y="489.5" width="1464" height="24.65"/>
            </clipPath>
<clipPath id="terminal-2311969643-line-21">
    <rect x="0" y="513.9" width="1464" height="24.65"/>
            </clipPath>
<clipPath id="terminal-2311969643-line-22">
    <rect x="0" y="538.3" width="1464" height="24.65"/>
            </clipPath>
<clipPath id="terminal-2311969643-line-23">
    <rect x="0" y="562.7" width="1464" height="24.65"/>
            </clipPath>
<clipPath id="terminal-2311969643-line-24">
    <rect x="0" y="587.1" width="1464" height="24.65"/>
            </clipPath>
<clipPath id="terminal-2311969643-line-25">
    <rect x="0" y="611.5" width="1464" height="24.65"/>
            </clipPath>
<clipPath id="terminal-2311969643-line-26">
    <rect x="0" y="635.9" width="1464" height="24.65"/>
            </clipPath>
<clipPath id="terminal-2311969643-line-27">
    <rect x="0" y="660.3" width="1464" height="24.65"/>
            </clipPath>
<clipPath id="terminal-2311969643-line-28">
    <rect x="0" y="684.7" width="1464" height="24.65"/>
            </clipPath>
<clipPath id="terminal-2311969643-line-29">
    <rect x="0" y="709.1" width="1464" height="24.65"/>
            </clipPath>
<clipPath id="terminal-2311969643-line-30">
    <rect x="0" y="733.5" width="1464" height="24.65"/>
            </clipPath>
<clipPath id="terminal-2311969643-line-31">
    <rect x="0" y="757.9" width="1464" height="24.65"/>
            </clipPath>
<clipPath id="terminal-2311969643-line-32">
    <rect x="0" y="782.3" width="1464" height="24.65"/>
            </clipPath>
<clipPath id="terminal-2311969643-line-33">
    <rect x="0" y="806.7" width="1464" height="24.65"/>
            </clipPath>
    </defs>

    <rect fill="#292929" stroke="rgba(255,255,255,0.35)" stroke-width="1" x="1" y="1" width="1480" height="902" rx="8"/><text class="terminal-2311969643-title" fill="#c5c8c6" text-anchor="middle" x="740" y="27">MenuApp</text>
            <g transform="translate(26,22)">
            <circle cx="0" cy="0" r="7" fill="#ff5f57"/>
            <circle cx="22" cy="0" r="7" fill="#febc2e"/>
            <circle cx="44" cy="0" r="7" fill="#28c840"/>
            </g>
        
    <g transform="translate(9, 41)" clip-path="url(#terminal-2311969643-clip-terminal)">
    <rect fill="#1a1a3e" x="0" y="1.5" width="12.2" height="24.65" shape-rendering="crispEdges"/><rect fill="#1a1a3e" x="12.2" y="1.5" width="36.6" height="24.65" shape-rendering="crispEdges"/><rect fill="#1a1a3e" x="48.8" y="1.5" width="109.8" height="24.65" shape-rendering="crispEdges"/><rect fill="#1a1a3e" x="158.6" y="1.5" width="36.6" height="24.65" shape-rendering="crispEdges"/><rect fill="#1a1a3e" x="195.2" y="1.5" width="231.8" height="24.65" shape-rendering="crispEdges"/><rect fill="#1a1a3e" x="427" y="1.5" width="1024.8" height="24.65" shape-rendering="crispEdges"/><rect fill="#1a1a3e" x="1451.8" y="1.5" width="12.2" height="24.65" shape-rendering="crispEdges"/><rect fill="#16213e" x="0" y="25.9" width="12.2" height="24.65" shape-rendering="crispEdges"/><rect fill="#16213e" x="12.2" y="25.9" width="341.6" height="24.65" shape-rendering="crispEdges"/><rect fill="#16213e" x="353.8" y="25.9" width="1098" height="24.65" shape-rendering="crispEdges"/><rect fill="#16213e" x="1451.8" y="25.9" width="12.2" height="24.65" shape-rendering="crispEdges"/><rect fill="#16213e" x="0" y="50.3" width="353.8" height="24.65" shape-rendering="crispEdges"/><rect fill="#16213e" x="353.8" y="50.3" width="12.2" height="24.65" shape-rendering="crispEdges"/><rect fill="#16213e" x="366" y="50.3" width="12.2" height="24.65" shape-rendering="crispEdges"/><rect fill="#16213e" x="378.2" y="50.3" width="1073.6" height="24.65" shape-rendering="crispEdges"/><rect fill="#16213e" x="1451.8" y="50.3" width="12.2" height="24.65" shape-rendering="crispEdges"/><rect fill="#1e1e1e" x="0" y="74.7" width="24.4" height="24.65" shape-rendering="crispEdges"/><rect fill="#153854" x="24.4" y="74.7" width="109.8" height="24.65" shape-rendering="crispEdges"/><rect fill="#1e1e1e" x="134.2" y="74.7" width="219.6" height="24.65" shape-rendering="crispEdges"/><rect fill="#16213e" x="353.8" y="74.7" width="12.2" height="24.65" shape-rendering="crispEdges"/><rect fill="#16213e" x="366" y="74.7" width="12.2" height="24.65" shape-rendering="crispEdges"/><rect fill="#16213e" x="378.2" y="74.7" width="24.4" height="24.65" shape-rendering="crispEdges"/><rect fill="#16213e" x="402.6" y="74.7" width="244" height="24.65" shape-rendering="crispEdges"/><rect fill="#16213e" x="646.6" y="74.7" width="780.8" height="24.65" shape-rendering="crispEdges"/><rect fill="#16213e" x="1427.4" y="74.7" width="24.4" height="24.65" shape-rendering="crispEdges"/><rect fill="#16213e" x="1451.8" y="74.7" width="12.2" height="24.65" shape-rendering="crispEdges"/><rect fill="#1e1e1e" x="0" y="99.1" width="48.8" height="24.65" shape-rendering="crispEdges"/><rect fill="#1e1e1e" x="48.8" y="99.1" width="24.4" height="24.65" shape-rendering="crispEdges"/><rect fill="#1e1e1e" x="73.2" y="99.1" width="48.8" height="24.65" shape-rendering="crispEdges"/><rect fill="#1e1e1e" x="122" y="99.1" width="231.8" height="24.65" shape-rendering="crispEdges"/><rect fill="#16213e" x="353.8" y="99.1" width="12.2" height="24.65" shape-rendering="crispEdges"/><rect fill="#16213e" x="366" y="99.1" width="12.2" height="24.65" shape-rendering="crispEdges"/><rect fill="#16213e" x="378.2" y="99.1" width="1073.6" height="24.65" shape-rendering="crispEdges"/><rect fill="#16213e" x="1451.8" y="99.1" width="12.2" height="24.65" shape-rendering="crispEdges"/><rect fill="#1e1e1e" x="0" y="123.5" width="48.8" height="24.65" shape-rendering="crispEdges"/><rect fill="#1e1e1e" x="48.8" y="123.5" width="24.4" height="24.65" shape-rendering="crispEdges"/><rect fill="#1e1e1e" x="73.2" y="123.5" width="48.8" height="24.65" shape-rendering="crispEdges"/><rect fill="#1e1e1e" x="122" y="123.5" width="231.8" height="24.65" shape-rendering="crispEdges"/><rect fill="#16213e" x="353.8" y="123.5" width="12.2" height="24.65" shape-rendering="crispEdges"/><rect fill="#1a1a2e" x="366" y="123.5" width="1098" height="24.65" shape-rendering="crispEdges"/><rect fill="#1e1e1e" x="0" y="147.9" width="48.8" height="24.65" shape-rendering="crispEdges"/><rect fill="#1e1e1e" x="48.8" y="147.9" width="24.4" height="24.65" shape-rendering="crispEdges"/><rect fill="#1e1e1e" x="73.2" y="147.9" width="61" height="24.65" shape-rendering="crispEdges"/><rect fill="#1e1e1e" x="134.2" y="147.9" width="219.6" height="24.65" shape-rendering="crispEdges"/><rect fill="#16213e" x="353.8" y="147.9" width="12.2" height="24.65" shape-rendering="crispEdges"/><rect fill="#1a1a2e" x="366" y="147.9" width="1098" height="24.65" shape-rendering="crispEdges"/><rect fill="#1e1e1e" x="0" y="172.3" width="48.8" height="24.65" shape-rendering="crispEdges"/><rect fill="#1e1e1e" x="48.8" y="172.3" width="24.4" height="24.65" shape-rendering="crispEdges"/><rect fill="#1e1e1e" x="73.2" y="172.3" width="48.8" height="24.65" shape-rendering="crispEdges"/><rect fill="#1e1e1e" x="122" y="172.3" width="231.8" height="24.65" shape-rendering="crispEdges"/><rect fill="#16213e" x="353.8" y="172.3" width="12.2" height="24.65" shape-rendering="crispEdges"/><rect fill="#1a1a2e" x="366" y="172.3" width="12.2" height="24.65" shape-rendering="crispEdges"/><rect fill="#e0e0e0" x="378.2" y="172.3" width="158.6" height="24.65" shape-rendering="crispEdges"/><rect fill="#e0e0e0" x="536.8" y="172.3" width="134.2" height="24.65" shape-rendering="crispEdges"/><rect fill="#1a1a2e" x="671" y="172.3" width="780.8" height="24.65" shape-rendering="crispEdges"/><rect fill="#1a1a2e" x="1451.8" y="172.3" width="12.2" height="24.65" shape-rendering="crispEdges"/><rect fill="#1e1e1e" x="0" y="196.7" width="353.8" height="24.65" shape-rendering="crispEdges"/><rect fill="#16213e" x="353.8" y="196.7" width="12.2" height="24.65" shape-rendering="crispEdges"/><rect fill="#1a1a2e" x="366" y="196.7" width="12.2" height="24.65" shape-rendering="crispEdges"/><rect fill="#1a1a2e" x="378.2" y="196.7" width="231.8" height="24.65" shape-rendering="crispEdges"/><rect fill="#1a1a2e" x="610" y="196.7" width="134.2" height="24.65" shape-rendering="crispEdges"/><rect fill="#1a1a2e" x="744.2" y="196.7" width="707.6" height="24.65" shape-rendering="crispEdges"/><rect fill="#1a1a2e" x="1451.8" y="196.7" width="12.2" height="24.65" shape-rendering="crispEdges"/><rect fill="#1e1e1e" x="0" y="221.1" width="353.8" height="24.65" shape-rendering="crispEdges"/><rect fill="#16213e" x="353.8" y="221.1" width="12.2" height="24.65" shape-rendering="crispEdges"/><rect fill="#1a1a2e" x="366" y="221.1" width="12.2" height="24.65" shape-rendering="crispEdges"/><rect fill="#1a1a2e" x="378.2" y="221.1" width="122" height="24.65" shape-rendering="crispEdges"/><rect fill="#1a1a2e" x="500.2" y="221.1" width="134.2" height="24.65" shape-rendering="crispEdges"/><rect fill="#1a1a2e" x="634.4" y="221.1" width="817.4" height="24.65" shape-rendering="crispEdges"/><rect fill="#1a1a2e" x="1451.8" y="221.1" width="12.2" height="24.65" shape-rendering="crispEdges"/><rect fill="#1e1e1e" x="0" y="245.5" width="353.8" height="24.65" shape-rendering="crispEdges"/><rect fill="#16213e" x="353.8" y="245.5" width="12.2" height="24.65" shape-rendering="crispEdges"/><rect fill="#1a1a2e" x="366" y="245.5" width="12.2" height="24.65" shape-rendering="crispEdges"/><rect fill="#1a1a2e" x="378.2" y="245.5" width="109.8" height="24.65" shape-rendering="crispEdges"/><rect fill="#1a1a2e" x="488" y="245.5" width="134.2" height="24.65" shape-rendering="crispEdges"/><rect fill="#1a1a2e" x="622.2" y="245.5" width="829.6" height="24.65" shape-rendering="crispEdges"/><rect fill="#1a1a2e" x="1451.8" y="245.5" width="12.2" height="24.65" shape-rendering="crispEdges"/><rect fill="#1e1e1e" x="0" y="269.9" width="353.8" height="24.65" shape-rendering="crispEdges"/><rect fill="#16213e" x="353.8" y="269.9" width="12.2" height="24.65" shape-rendering="crispEdges"/><rect fill="#1a1a2e" x="366" y="269.9" width="12.2" height="24.65" shape-rendering="crispEdges"/><rect fill="#1a1a2e" x="378.2" y="269.9" width="219.6" height="24.65" shape-rendering="crispEdges"/><rect fill="#1a1a2e" x="597.8" y="269.9" width="134.2" height="24.65" shape-rendering="crispEdges"/><rect fill="#1a1a2e" x="732" y="269.9" width="719.8" height="24.65" shape-rendering="crispEdges"/><rect fill="#1a1a2e" x="1451.8" y="269.9" width="12.2" height="24.65" shape-rendering="crispEdges"/><rect fill="#1e1e1e" x="0" y="294.3" width="353.8" height="24.65" shape-rendering="crispEdges"/><rect fill="#16213e" x="353.8" y="294.3" width="12.2" height="24.65" shape-rendering="crispEdges"/><rect fill="#1a1a2e" x="366" y="294.3" width="12.2" height="24.65" shape-rendering="crispEdges"/><rect fill="#1a1a2e" x="378.2" y="294.3" width="0" height="24.65" shape-rendering="crispEdges"/><rect fill="#1a1a2e" x="378.2" y="294.3" width="1073.6" height="24.65" shape-rendering="crispEdges"/><rect fill="#1a1a2e" x="1451.8" y="294.3" width="12.2" height="24.65" shape-rendering="crispEdges"/><rect fill="#1e1e1e" x="0" y="318.7" width="353.8" height="24.65" shape-rendering="crispEdges"/><rect fill="#16213e" x="353.8" y="318.7" width="12.2" height="24.65" shape-rendering="crispEdges"/><rect fill="#1a1a2e" x="366" y="318.7" width="12.2" height="24.65" shape-rendering="crispEdges"/><rect fill="#1a1a2e" x="378.2" y="318.7" width="1073.6" height="24.65" shape-rendering="crispEdges"/><rect fill="#1a1a2e" x="1451.8" y="318.7" width="12.2" height="24.65" shape-rendering="crispEdges"/><rect fill="#1e1e1e" x="0" y="343.1" width="353.8" height="24.65" shape-rendering="crispEdges"/><rect fill="#16213e" x="353.8" y="343.1" width="12.2" height="24.65" shape-rendering="crispEdges"/><rect fill="#1a1a2e" x="366" y="343.1" width="12.2" height="24.65" shape-rendering="crispEdges"/><rect fill="#1a1a2e" x="378.2" y="343.1" width="1073.6" height="24.65" shape-rendering="crispEdges"/><rect fill="#1a1a2e" x="1451.8" y="343.1" width="12.2" height="24.65" shape-rendering="crispEdges"/><rect fill="#1e1e1e" x="0" y="367.5" width="353.8" height="24.65" shape-rendering="crispEdges"/><rect fill="#16213e" x="353.8" y="367.5" width="12.2" height="24.65" shape-rendering="crispEdges"/><rect fill="#1a1a2e" x="366" y="367.5" width="12.2" height="24.65" shape-rendering="crispEdges"/><rect fill="#1a1a2e" x="378.2" y="367.5" width="1073.6" height="24.65" shape-rendering="crispEdges"/><rect fill="#1a1a2e" x="1451.8" y="367.5" width="12.2" height="24.65" shape-rendering="crispEdges"/><rect fill="#1e1e1e" x="0" y="391.9" width="353.8" height="24.65" shape-rendering="crispEdges"/><rect fill="#16213e" x="353.8" y="391.9" width="12.2" height="24.65" shape-rendering="crispEdges"/><rect fill="#1a1a2e" x="366" y="391.9" width="12.2" height="24.65" shape-rendering="crispEdges"/><rect fill="#1a1a2e" x="378.2" y="391.9" width="1073.6" height="24.65" shape-rendering="crispEdges"/><rect fill="#1a1a2e" x="1451.8" y="391.9" width="12.2" height="24.65" shape-rendering="crispEdges"/><rect fill="#1e1e1e" x="0" y="416.3" width="353.8" height="24.65" shape-rendering="crispEdges"/><rect fill="#16213e" x="353.8" y="416.3" width="12.2" height="24.65" shape-rendering="crispEdges"/><rect fill="#1a1a2e" x="366" y="416.3" width="12.2" height="24.65" shape-rendering="crispEdges"/><rect fill="#1a1a2e" x="378.2" y="416.3" width="1073.6" height="24.65" shape-rendering="crispEdges"/><rect fill="#1a1a2e" x="1451.8" y="416.3" width="12.2" height="24.65" shape-rendering="crispEdges"/><rect fill="#1e1e1e" x="0" y="440.7" width="353.8" height="24.65" shape-rendering="crispEdges"/><rect fill="#16213e" x="353.8" y="440.7" width="12.2" height="24.65" shape-rendering="crispEdges"/><rect fill="#1a1a2e" x="366" y="440.7" width="12.2" height="24.65" shape-rendering="crispEdges"/><rect fill="#1a1a2e" x="378.2" y="440.7" width="1073.6" height="24.65" shape-rendering="crispEdges"/><rect fill="#1a1a2e" x="1451.8" y="440.7" width="12.2" height="24.65" shape-rendering="crispEdges"/><rect fill="#1e1e1e" x="0" y="465.1" width="353.8" height="24.65" shape-rendering="crispEdges"/><rect fill="#16213e" x="353.8" y="465.1" width="12.2" height="24.65" shape-rendering="crispEdges"/><rect fill="#1a1a2e" x="366" y="465.1" width="12.2" height="24.65" shape-rendering="crispEdges"/><rect fill="#1a1a2e" x="378.2" y="465.1" width="1073.6" height="24.65" shape-rendering="crispEdges"/><rect fill="#1a1a2e" x="1451.8" y="465.1" width="12.2" height="24.65" shape-rendering="crispEdges"/><rect fill="#1e1e1e" x="0" y="489.5" width="353.8" height="24.65" shape-rendering="crispEdges"/><rect fill="#16213e" x="353.8" y="489.5" width="12.2" height="24.65" shape-rendering="crispEdges"/><rect fill="#1a1a2e" x="366" y="489.5" width="12.2" height="24.65" shape-rendering="crispEdges"/><rect fill="#1a1a2e" x="378.2" y="489.5" width="1073.6" height="24.65" shape-rendering="crispEdges"/><rect fill="#1a1a2e" x="1451.8" y="489.5" width="12.2" height="24.65" shape-rendering="crispEdges"/><rect fill="#1e1e1e" x="0" y="513.9" width="353.8" height="24.65" shape-rendering="crispEdges"/><rect fill="#16213e" x="353.8" y="513.9" width="12.2" height="24.65" shape-rendering="crispEdges"/><rect fill="#1a1a2e" x="366" y="513.9" width="1098" height="24.65" shape-rendering="crispEdges"/><rect fill="#1e1e1e" x="0" y="538.3" width="353.8" height="24.65" shape-rendering="crispEdges"/><rect fill="#16213e" x="353.8" y="538.3" width="12.2" height="24.65" shape-rendering="crispEdges"/><rect fill="#0d1117" x="366" y="538.3" width="1098" height="24.65" shape-rendering="crispEdges"/><rect fill="#1e1e1e" x="0" y="562.7" width="353.8" height="24.65" shape-rendering="crispEdges"/><rect fill="#16213e" x="353.8" y="562.7" width="12.2" height="24.65" shape-rendering="crispEdges"/><rect fill="#0d1117" x="366" y="562.7" width="1098" height="24.65" shape-rendering="crispEdges"/><rect fill="#1e1e1e" x="0" y="587.1" width="353.8" height="24.65" shape-rendering="crispEdges"/><rect fill="#16213e" x="353.8" y="587.1" width="12.2" height="24.65" shape-rendering="crispEdges"/><rect fill="#0d1117" x="366" y="587.1" width="12.2" height="24.65" shape-rendering="crispEdges"/><rect fill="#1e1e1e" x="378.2" y="587.1" width="610" height="24.65" shape-rendering="crispEdges"/><rect fill="#1e1e1e" x="988.2" y="587.1" width="439.2" height="24.65" shape-rendering="crispEdges"/><rect fill="#000000" x="1427.4" y="587.1" width="24.4" height="24.65" shape-rendering="crispEdges"/><rect fill="#0d1117" x="1451.8" y="587.1" width="12.2" height="24.65" shape-rendering="crispEdges"/><rect fill="#1e1e1e" x="0" y="611.5" width="353.8" height="24.65" shape-rendering="crispEdges"/><rect fill="#16213e" x="353.8" y="611.5" width="12.2" height="24.65" shape-rendering="crispEdges"/><rect fill="#0d1117" x="366" y="611.5" width="12.2" height="24.65" shape-rendering="crispEdges"/><rect fill="#1e1e1e" x="378.2" y="611.5" width="280.6" height="24.65" shape-rendering="crispEdges"/><rect fill="#1e1e1e" x="658.8" y="611.5" width="48.8" height="24.65" shape-rendering="crispEdges"/><rect fill="#1e1e1e" x="707.6" y="611.5" width="12.2" height="24.65" shape-rendering="crispEdges"/><rect fill="#1e1e1e" x="719.8" y="611.5" width="12.2" height="24.65" shape-rendering="crispEdges"/><rect fill="#1e1e1e" x="732" y="611.5" width="695.4" height="24.65" shape-rendering="crispEdges"/><rect fill="#000000" x="1427.4" y="611.5" width="24.4" height="24.65" shape-rendering="crispEdges"/><rect fill="#0d1117" x="1451.8" y="611.5" width="12.2" height="24.65" shape-rendering="crispEdges"/><rect fill="#1e1e1e" x="0" y="635.9" width="353.8" height="24.65" shape-rendering="crispEdges"/><rect fill="#16213e" x="353.8" y="635.9" width="12.2" height="24.65" shape-rendering="crispEdges"/><rect fill="#0d1117" x="366" y="635.9" width="12.2" height="24.65" shape-rendering="crispEdges"/><rect fill="#1e1e1e" x="378.2" y="635.9" width="256.2" height="24.65" shape-rendering="crispEdges"/><rect fill="#1e1e1e" x="634.4" y="635.9" width="793" height="24.65" shape-rendering="crispEdges"/><rect fill="#003054" x="1427.4" y="635.9" width="24.4" height="24.65" shape-rendering="crispEdges"/><rect fill="#0d1117" x="1451.8" y="635.9" width="12.2" height="24.65" shape-rendering="crispEdges"/><rect fill="#1e1e1e" x="0" y="660.3" width="353.8" height="24.65" shape-rendering="crispEdges"/><rect fill="#16213e" x="353.8" y="660.3" width="12.2" height="24.65" shape-rendering="crispEdges"/><rect fill="#0d1117" x="366" y="660.3" width="12.2" height="24.65" shape-rendering="crispEdges"/><rect fill="#1e1e1e" x="378.2" y="660.3" width="231.8" height="24.65" shape-rendering="crispEdges"/><rect fill="#1e1e1e" x="610" y="660.3" width="817.4" height="24.65" shape-rendering="crispEdges"/><rect fill="#003054" x="1427.4" y="660.3" width="24.4" height="24.65" shape-rendering="crispEdges"/><rect fill="#0d1117" x="1451.8" y="660.3" width="12.2" height="24.65" shape-rendering="crispEdges"/><rect fill="#1e1e1e" x="0" y="684.7" width="353.8" height="24.65" shape-rendering="crispEdges"/><rect fill="#16213e" x="353.8" y="684.7" width="12.2" height="24.65" shape-rendering="crispEdges"/><rect fill="#0d1117" x="366" y="684.7" width="12.2" height="24.65" shape-rendering="crispEdges"/><rect fill="#1e1e1e" x="378.2" y="684.7" width="195.2" height="24.65" shape-rendering="crispEdges"/><rect fill="#1e1e1e" x="573.4" y="684.7" width="36.6" height="24.65" shape-rendering="crispEdges"/><rect fill="#1e1e1e" x="610" y="684.7" width="12.2" height="24.65" shape-rendering="crispEdges"/><rect fill="#1e1e1e" x="622.2" y="684.7" width="24.4" height="24.65" shape-rendering="crispEdges"/><rect fill="#1e1e1e" x="646.6" y="684.7" width="780.8" height="24.65" shape-rendering="crispEdges"/><rect fill="#003054" x="1427.4" y="684.7" width="24.4" height="24.65" shape-rendering="crispEdges"/><rect fill="#0d1117" x="1451.8" y="684.7" width="12.2" height="24.65" shape-rendering="crispEdges"/><rect fill="#1e1e1e" x="0" y="709.1" width="353.8" height="24.65" shape-rendering="crispEdges"/><rect fill="#16213e" x="353.8" y="709.1" width="12.2" height="24.65" shape-rendering="crispEdges"/><rect fill="#0d1117" x="366" y="709.1" width="12.2" height="24.65" shape-rendering="crispEdges"/><rect fill="#1e1e1e" x="378.2" y="709.1" width="195.2" height="24.65" shape-rendering="crispEdges"/><rect fill="#1e1e1e" x="573.4" y="709.1" width="561.2" height="24.65" shape-rendering="crispEdges"/><rect fill="#1e1e1e" x="1134.6" y="709.1" width="85.4" height="24.65" shape-rendering="crispEdges"/><rect fill="#1e1e1e" x="1220" y="709.1" width="207.4" height="24.65" shape-rendering="crispEdges"/><rect fill="#003054" x="1427.4" y="709.1" width="24.4" height="24.65" shape-rendering="crispEdges"/><rect fill="#0d1117" x="1451.8" y="709.1" width="12.2" height="24.65" shape-rendering="crispEdges"/><rect fill="#1e1e1e" x="0" y="733.5" width="353.8" height="24.65" shape-rendering="crispEdges"/><rect fill="#16213e" x="353.8" y="733.5" width="12.2" height="24.65" shape-rendering="crispEdges"/><rect fill="#0d1117" x="366" y="733.5" width="12.2" height="24.65" shape-rendering="crispEdges"/><rect fill="#1e1e1e" x="378.2" y="733.5" width="195.2" height="24.65" shape-rendering="crispEdges"/><rect fill="#1e1e1e" x="573.4" y="733.5" width="305" height="24.65" shape-rendering="crispEdges"/><rect fill="#1e1e1e" x="878.4" y="733.5" width="122" height="24.65" shape-rendering="crispEdges"/><rect fill="#1e1e1e" x="1000.4" y="733.5" width="427" height="24.65" shape-rendering="crispEdges"/><rect fill="#003054" x="1427.4" y="733.5" width="24.4" height="24.65" shape-rendering="crispEdges"/><rect fill="#0d1117" x="1451.8" y="733.5" width="12.2" height="24.65" shape-rendering="crispEdges"/><rect fill="#1e1e1e" x="0" y="757.9" width="353.8" height="24.65" shape-rendering="crispEdges"/><rect fill="#16213e" x="353.8" y="757.9" width="12.2" height="24.65" shape-rendering="crispEdges"/><rect fill="#0d1117" x="366" y="757.9" width="12.2" height="24.65" shape-rendering="crispEdges"/><rect fill="#1e1e1e" x="378.2" y="757.9" width="195.2" height="24.65" shape-rendering="crispEdges"/><rect fill="#1e1e1e" x="573.4" y="757.9" width="85.4" height="24.65" shape-rendering="crispEdges"/><rect fill="#1e1e1e" x="658.8" y="757.9" width="97.6" height="24.65" shape-rendering="crispEdges"/><rect fill="#1e1e1e" x="756.4" y="757.9" width="671" height="24.65" shape-rendering="crispEdges"/><rect fill="#003054" x="1427.4" y="757.9" width="24.4" height="24.65" shape-rendering="crispEdges"/><rect fill="#0d1117" x="1451.8" y="757.9" width="12.2" height="24.65" shape-rendering="crispEdges"/><rect fill="#1e1e1e" x="0" y="782.3" width="353.8" height="24.65" shape-rendering="crispEdges"/><rect fill="#16213e" x="353.8" y="782.3" width="12.2" height="24.65" shape-rendering="crispEdges"/><rect fill="#0d1117" x="366" y="782.3" width="12.2" height="24.65" shape-rendering="crispEdges"/><rect fill="#1e1e1e" x="378.2" y="782.3" width="292.8" height="24.65" shape-rendering="crispEdges"/><rect fill="#1e1e1e" x="671" y="782.3" width="756.4" height="24.65" shape-rendering="crispEdges"/><rect fill="#003054" x="1427.4" y="782.3" width="24.4" height="24.65" shape-rendering="crispEdges"/><rect fill="#0d1117" x="1451.8" y="782.3" width="12.2" height="24.65" shape-rendering="crispEdges"/><rect fill="#16213e" x="0" y="806.7" width="353.8" height="24.65" shape-rendering="crispEdges"/><rect fill="#16213e" x="353.8" y="806.7" width="12.2" height="24.65" shape-rendering="crispEdges"/><rect fill="#0d1117" x="366" y="806.7" width="1098" height="24.65" shape-rendering="crispEdges"/><rect fill="#16213e" x="0" y="831.1" width="36.6" height="24.65" shape-rendering="crispEdges"/><rect fill="#16213e" x="36.6" y="831.1" width="61" height="24.65" shape-rendering="crispEdges"/><rect fill="#16213e" x="97.6" y="831.1" width="61" height="24.65" shape-rendering="crispEdges"/><rect fill="#16213e" x="158.6" y="831.1" width="61" height="24.65" shape-rendering="crispEdges"/><rect fill="#16213e" x="219.6" y="831.1" width="36.6" height="24.65" shape-rendering="crispEdges"/><rect fill="#16213e" x="256.2" y="831.1" width="85.4" height="24.65" shape-rendering="crispEdges"/><rect fill="#16213e" x="341.6" y="831.1" width="36.6" height="24.65" shape-rendering="crispEdges"/><rect fill="#16213e" x="378.2" y="831.1" width="73.2" height="24.65" shape-rendering="crispEdges"/><rect fill="#16213e" x="451.4" y="831.1" width="866.2" height="24.65" shape-rendering="crispEdges"/><rect fill="#16213e" x="1317.6" y="831.1" width="12.2" height="24.65" shape-rendering="crispEdges"/><rect fill="#16213e" x="1329.8" y="831.1" width="24.4" height="24.65" shape-rendering="crispEdges"/><rect fill="#16213e" x="1354.2" y="831.1" width="97.6" height="24.65" shape-rendering="crispEdges"/><rect fill="#16213e" x="1451.8" y="831.1" width="12.2" height="24.65" shape-rendering="crispEdges"/>
    <g class="terminal-2311969643-matrix">
    <text class="terminal-2311969643-r2" x="12.2" y="20" textLength="24.4" clip-path="url(#terminal-2311969643-line-0)">📍&#160;</text><text class="terminal-2311969643-r3" x="48.8" y="20" textLength="109.8" clip-path="url(#terminal-2311969643-line-0)">Main&#160;Menu</text><text class="terminal-2311969643-r3" x="158.6" y="20" textLength="36.6" clip-path="url(#terminal-2311969643-line-0)">&#160;›&#160;</text><text class="terminal-2311969643-r4" x="195.2" y="20" textLength="231.8" clip-path="url(#terminal-2311969643-line-0)">Tools&#160;and&#160;Utilities</text><text class="terminal-2311969643-r1" x="1464" y="20" textLength="12.2" clip-path="url(#terminal-2311969643-line-0)">
</text><text class="terminal-2311969643-r5" x="12.2" y="44.4" textLength="341.6" clip-path="url(#terminal-2311969643-line-1)">v2.0&#160;—&#160;Interactive&#160;TUI&#160;Menus</text><text class="terminal-2311969643-r1" x="1464" y="44.4" textLength="12.2" clip-path="url(#terminal-2311969643-line-1)">
</text><text class="terminal-2311969643-r6" x="353.8" y="68.8" textLength="12.2" clip-path="url(#terminal-2311969643-line-2)">│</text><text class="terminal-2311969643-r6" x="366" y="68.8" textLength="12.2" clip-path="url(#terminal-2311969643-line-2)">┌</text><text class="terminal-2311969643-r6" x="378.2" y="68.8" textLength="1073.6" clip-path="url(#terminal-2311969643-line-2)">────────────────────────────────────────────────────────────────────────────────────────</text><text class="terminal-2311969643-r6" x="1451.8" y="68.8" textLength="12.2" clip-path="url(#terminal-2311969643-line-2)">┐</text><text class="terminal-2311969643-r1" x="1464" y="68.8" textLength="12.2" clip-path="url(#terminal-2311969643-line-2)">
</text><text class="terminal-2311969643-r7" x="0" y="93.2" textLength="24.4" clip-path="url(#terminal-2311969643-line-3)">▼&#160;</text><text class="terminal-2311969643-r7" x="24.4" y="93.2" textLength="109.8" clip-path="url(#terminal-2311969643-line-3)">Main&#160;Menu</text><text class="terminal-2311969643-r6" x="353.8" y="93.2" textLength="12.2" clip-path="url(#terminal-2311969643-line-3)">│</text><text class="terminal-2311969643-r6" x="366" y="93.2" textLength="12.2" clip-path="url(#terminal-2311969643-line-3)">│</text><text class="terminal-2311969643-r8" x="402.6" y="93.2" textLength="231.8" clip-path="url(#terminal-2311969643-line-3)">🔍&#160;Type&#160;to&#160;filter...</text><text class="terminal-2311969643-r6" x="1451.8" y="93.2" textLength="12.2" clip-path="url(#terminal-2311969643-line-3)">│</text><text class="terminal-2311969643-r1" x="1464" y="93.2" textLength="12.2" clip-path="url(#terminal-2311969643-line-3)">
</text><text class="terminal-2311969643-r9" x="0" y="117.6" textLength="48.8" clip-path="url(#terminal-2311969643-line-4)">├──&#160;</text><text class="terminal-2311969643-r7" x="48.8" y="117.6" textLength="24.4" clip-path="url(#terminal-2311969643-line-4)">▶&#160;</text><text class="terminal-2311969643-r7" x="73.2" y="117.6" textLength="48.8" clip-path="url(#terminal-2311969643-line-4)">File</text><text class="terminal-2311969643-r6" x="353.8" y="117.6" textLength="12.2" clip-path="url(#terminal-2311969643-line-4)">│</text><text class="terminal-2311969643-r6" x="366" y="117.6" textLength="12.2" clip-path="url(#terminal-2311969643-line-4)">└</text><text class="terminal-2311969643-r6" x="378.2" y="117.6" textLength="1073.6" clip-path="url(#terminal-2311969643-line-4)">────────────────────────────────────────────────────────────────────────────────────────</text><text class="terminal-2311969643-r6" x="1451.8" y="117.6" textLength="12.2" clip-path="url(#terminal-2311969643-line-4)">┘</text><text class="terminal-2311969643-r1" x="1464" y="117.6" textLength="12.2" clip-path="url(#terminal-2311969643-line-4)">
</text><text class="terminal-2311969643-r9" x="0" y="142" textLength="48.8" clip-path="url(#terminal-2311969643-line-5)">├──&#160;</text><text class="terminal-2311969643-r7" x="48.8" y="142" textLength="24.4" clip-path="url(#terminal-2311969643-line-5)">▶&#160;</text><text class="terminal-2311969643-r7" x="73.2" y="142" textLength="48.8" clip-path="url(#terminal-2311969643-line-5)">Edit</text><text class="terminal-2311969643-r6" x="353.8" y="142" textLength="12.2" clip-path="url(#terminal-2311969643-line-5)">│</text><text class="terminal-2311969643-r1" x="1464" y="142" textLength="12.2" clip-path="url(#terminal-2311969643-line-5)">
</text><text class="terminal-2311969643-r9" x="0" y="166.4" textLength="48.8" clip-path="url(#terminal-2311969643-line-6)">├──&#160;</text><text class="terminal-2311969643-r7" x="48.8" y="166.4" textLength="24.4" clip-path="url(#terminal-2311969643-line-6)">▶&#160;</text><text class="terminal-2311969643-r7" x="73.2" y="166.4" textLength="61" clip-path="url(#terminal-2311969643-line-6)">Tools</text><text class="terminal-2311969643-r6" x="353.8" y="166.4" textLength="12.2" clip-path="url(#terminal-2311969643-line-6)">│</text><text class="terminal-2311969643-r1" x="1464" y="166.4" textLength="12.2" clip-path="url(#terminal-2311969643-line-6)">
</text><text class="terminal-2311969643-r9" x="0" y="190.8" textLength="48.8" clip-path="url(#terminal-2311969643-line-7)">└──&#160;</text><text class="terminal-2311969643-r7" x="48.8" y="190.8" textLength="24.4" clip-path="url(#terminal-2311969643-line-7)">▶&#160;</text><text class="terminal-2311969643-r7" x="73.2" y="190.8" textLength="48.8" clip-path="url(#terminal-2311969643-line-7)">Help</text><text class="terminal-2311969643-r6" x="353.8" y="190.8" textLength="12.2" clip-path="url(#terminal-2311969643-line-7)">│</text><text class="terminal-2311969643-r10" x="378.2" y="190.8" textLength="158.6" clip-path="url(#terminal-2311969643-line-7)">❯&#160;System&#160;Info</text><text class="terminal-2311969643-r10" x="536.8" y="190.8" textLength="122" clip-path="url(#terminal-2311969643-line-7)">&#160;&#160;⚡&#160;action</text><text class="terminal-2311969643-r1" x="1464" y="190.8" textLength="12.2" clip-path="url(#terminal-2311969643-line-7)">
</text><text class="terminal-2311969643-r6" x="353.8" y="215.2" textLength="12.2" clip-path="url(#terminal-2311969643-line-8)">│</text><text class="terminal-2311969643-r7" x="378.2" y="215.2" textLength="231.8" clip-path="url(#terminal-2311969643-line-8)">&#160;&#160;Generate&#160;Password</text><text class="terminal-2311969643-r11" x="610" y="215.2" textLength="122" clip-path="url(#terminal-2311969643-line-8)">&#160;&#160;⚡&#160;action</text><text class="terminal-2311969643-r1" x="1464" y="215.2" textLength="12.2" clip-path="url(#terminal-2311969643-line-8)">
</text><text class="terminal-2311969643-r6" x="353.8" y="239.6" textLength="12.2" clip-path="url(#terminal-2311969643-line-9)">│</text><text class="terminal-2311969643-r7" x="378.2" y="239.6" textLength="122" clip-path="url(#terminal-2311969643-line-9)">&#160;&#160;Settings</text><text class="terminal-2311969643-r11" x="500.2" y="239.6" textLength="134.2" clip-path="url(#terminal-2311969643-line-9)">&#160;&#160;→&#160;submenu</text><text class="terminal-2311969643-r1" x="1464" y="239.6" textLength="12.2" clip-path="url(#terminal-2311969643-line-9)">
</text><text class="terminal-2311969643-r6" x="353.8" y="264" textLength="12.2" clip-path="url(#terminal-2311969643-line-10)">│</text><text class="terminal-2311969643-r7" x="378.2" y="264" textLength="109.8" clip-path="url(#terminal-2311969643-line-10)">&#160;&#160;Plugins</text><text class="terminal-2311969643-r11" x="488" y="264" textLength="134.2" clip-path="url(#terminal-2311969643-line-10)">&#160;&#160;→&#160;submenu</text><text class="terminal-2311969643-r1" x="1464" y="264" textLength="12.2" clip-path="url(#terminal-2311969643-line-10)">
</text><text class="terminal-2311969643-r6" x="353.8" y="288.4" textLength="12.2" clip-path="url(#terminal-2311969643-line-11)">│</text><text class="terminal-2311969643-r7" x="378.2" y="288.4" textLength="219.6" clip-path="url(#terminal-2311969643-line-11)">&#160;&#160;Backup&#160;&amp;&#160;Restore</text><text class="terminal-2311969643-r11" x="597.8" y="288.4" textLength="134.2" clip-path="url(#terminal-2311969643-line-11)">&#160;&#160;→&#160;submenu</text><text class="terminal-2311969643-r1" x="1464" y="288.4" textLength="12.2" clip-path="url(#terminal-2311969643-line-11)">
</text><text class="terminal-2311969643-r6" x="353.8" y="312.8" textLength="12.2" clip-path="url(#terminal-2311969643-line-12)">│</text><text class="terminal-2311969643-r1" x="1464" y="312.8" textLength="12.2" clip-path="url(#terminal-2311969643-line-12)">
</text><text class="terminal-2311969643-r6" x="353.8" y="337.2" textLength="12.2" clip-path="url(#terminal-2311969643-line-13)">│</text><text class="terminal-2311969643-r1" x="1464" y="337.2" textLength="12.2" clip-path="url(#terminal-2311969643-line-13)">
</text><text class="terminal-2311969643-r6" x="353.8" y="361.6" textLength="12.2" clip-path="url(#terminal-2311969643-line-14)">│</text><text class="terminal-2311969643-r1" x="1464" y="361.6" textLength="12.2" clip-path="url(#terminal-2311969643-line-14)">
</text><text class="terminal-2311969643-r6" x="353.8" y="386" textLength="12.2" clip-path="url(#terminal-2311969643-line-15)">│</text><text class="terminal-2311969643-r1" x="1464" y="386" textLength="12.2" clip-path="url(#terminal-2311969643-line-15)">
</text><text class="terminal-2311969643-r6" x="353.8" y="410.4" textLength="12.2" clip-path="url(#terminal-2311969643-line-16)">│</text><text class="terminal-2311969643-r1" x="1464" y="410.4" textLength="12.2" clip-path="url(#terminal-2311969643-line-16)">
</text><text class="terminal-2311969643-r6" x="353.8" y="434.8" textLength="12.2" clip-path="url(#terminal-2311969643-line-17)">│</text><text class="terminal-2311969643-r1" x="1464" y="434.8" textLength="12.2" clip-path="url(#terminal-2311969643-line-17)">
</text><text class="terminal-2311969643-r6" x="353.8" y="459.2" textLength="12.2" clip-path="url(#terminal-2311969643-line-18)">│</text><text class="terminal-2311969643-r1" x="1464" y="459.2" textLength="12.2" clip-path="url(#terminal-2311969643-line-18)">
</text><text class="terminal-2311969643-r6" x="353.8" y="483.6" textLength="12.2" clip-path="url(#terminal-2311969643-line-19)">│</text><text class="terminal-2311969643-r1" x="1464" y="483.6" textLength="12.2" clip-path="url(#terminal-2311969643-line-19)">
</text><text class="terminal-2311969643-r6" x="353.8" y="508" textLength="12.2" clip-path="url(#terminal-2311969643-line-20)">│</text><text class="terminal-2311969643-r1" x="1464" y="508" textLength="12.2" clip-path="url(#terminal-2311969643-line-20)">
</text><text class="terminal-2311969643-r6" x="353.8" y="532.4" textLength="12.2" clip-path="url(#terminal-2311969643-line-21)">│</text><text class="terminal-2311969643-r1" x="1464" y="532.4" textLength="12.2" clip-path="url(#terminal-2311969643-line-21)">
</text><text class="terminal-2311969643-r6" x="353.8" y="556.8" textLength="12.2" clip-path="url(#terminal-2311969643-line-22)">│</text><text class="terminal-2311969643-r6" x="366" y="556.8" textLength="1098" clip-path="url(#terminal-2311969643-line-22)">──────────────────────────────────────────────────────────────────────────────────────────</text><text class="terminal-2311969643-r1" x="1464" y="556.8" textLength="12.2" clip-path="url(#terminal-2311969643-line-22)">
</text><text class="terminal-2311969643-r6" x="353.8" y="581.2" textLength="12.2" clip-path="url(#terminal-2311969643-line-23)">│</text><text class="terminal-2311969643-r1" x="1464" y="581.2" textLength="12.2" clip-path="url(#terminal-2311969643-line-23)">
</text><text class="terminal-2311969643-r6" x="353.8" y="605.6" textLength="12.2" clip-path="url(#terminal-2311969643-line-24)">│</text><text class="terminal-2311969643-r7" x="378.2" y="605.6" textLength="610" clip-path="url(#terminal-2311969643-line-24)">==================================================</text><text class="terminal-2311969643-r1" x="1464" y="605.6" textLength="12.2" clip-path="url(#terminal-2311969643-line-24)">
</text><text class="terminal-2311969643-r6" x="353.8" y="630" textLength="12.2" clip-path="url(#terminal-2311969643-line-25)">│</text><text class="terminal-2311969643-r7" x="378.2" y="630" textLength="280.6" clip-path="url(#terminal-2311969643-line-25)">&#160;&#160;OS&#160;&#160;&#160;&#160;&#160;&#160;&#160;&#160;&#160;&#160;:&#160;Darwin&#160;</text><text class="terminal-2311969643-r12" x="658.8" y="630" textLength="48.8" clip-path="url(#terminal-2311969643-line-25)">25.0</text><text class="terminal-2311969643-r7" x="707.6" y="630" textLength="12.2" clip-path="url(#terminal-2311969643-line-25)">.</text><text class="terminal-2311969643-r12" x="719.8" y="630" textLength="12.2" clip-path="url(#terminal-2311969643-line-25)">0</text><text class="terminal-2311969643-r13" x="1427.4" y="630" textLength="24.4" clip-path="url(#terminal-2311969643-line-25)">▃▃</text><text class="terminal-2311969643-r1" x="1464" y="630" textLength="12.2" clip-path="url(#terminal-2311969643-line-25)">
</text><text class="terminal-2311969643-r6" x="353.8" y="654.4" textLength="12.2" clip-path="url(#terminal-2311969643-line-26)">│</text><text class="terminal-2311969643-r7" x="378.2" y="654.4" textLength="256.2" clip-path="url(#terminal-2311969643-line-26)">&#160;&#160;Machine&#160;&#160;&#160;&#160;&#160;:&#160;arm64</text><text class="terminal-2311969643-r1" x="1464" y="654.4" textLength="12.2" clip-path="url(#terminal-2311969643-line-26)">
</text><text class="terminal-2311969643-r6" x="353.8" y="678.8" textLength="12.2" clip-path="url(#terminal-2311969643-line-27)">│</text><text class="terminal-2311969643-r7" x="378.2" y="678.8" textLength="231.8" clip-path="url(#terminal-2311969643-line-27)">&#160;&#160;Processor&#160;&#160;&#160;:&#160;arm</text><text class="terminal-2311969643-r1" x="1464" y="678.8" textLength="12.2" clip-path="url(#terminal-2311969643-line-27)">
</text><text class="terminal-2311969643-r6" x="353.8" y="703.2" textLength="12.2" clip-path="url(#terminal-2311969643-line-28)">│</text><text class="terminal-2311969643-r7" x="378.2" y="703.2" textLength="195.2" clip-path="url(#terminal-2311969643-line-28)">&#160;&#160;Python&#160;&#160;&#160;&#160;&#160;&#160;:&#160;</text><text class="terminal-2311969643-r12" x="573.4" y="703.2" textLength="36.6" clip-path="url(#terminal-2311969643-line-28)">3.9</text><text class="terminal-2311969643-r7" x="610" y="703.2" textLength="12.2" clip-path="url(#terminal-2311969643-line-28)">.</text><text class="terminal-2311969643-r12" x="622.2" y="703.2" textLength="24.4" clip-path="url(#terminal-2311969643-line-28)">25</text><text class="terminal-2311969643-r1" x="1464" y="703.2" textLength="12.2" clip-path="url(#terminal-2311969643-line-28)">
</text><text class="terminal-2311969643-r6" x="353.8" y="727.6" textLength="12.2" clip-path="url(#terminal-2311969643-line-29)">│</text><text class="terminal-2311969643-r7" x="378.2" y="727.6" textLength="195.2" clip-path="url(#terminal-2311969643-line-29)">&#160;&#160;Executable&#160;&#160;:&#160;</text><text class="terminal-2311969643-r15" x="573.4" y="727.6" textLength="561.2" clip-path="url(#terminal-2311969643-line-29)">/Users/moraneus/Projects/pymenu-cli/.venv/bin/</text><text class="terminal-2311969643-r15" x="1134.6" y="727.6" textLength="85.4" clip-path="url(#terminal-2311969643-line-29)">python3</text><text class="terminal-2311969643-r1" x="1464" y="727.6" textLength="12.2" clip-path="url(#terminal-2311969643-line-29)">
</text><text class="terminal-2311969643-r6" x="353.8" y="752" textLength="12.2" clip-path="url(#terminal-2311969643-line-30)">│</text><text class="terminal-2311969643-r7" x="378.2" y="752" textLength="195.2" clip-path="url(#terminal-2311969643-line-30)">&#160;&#160;CWD&#160;&#160;&#160;&#160;&#160;&#160;&#160;&#160;&#160;:&#160;</text><text class="terminal-2311969643-r15" x="573.4" y="752" textLength="305" clip-path="url(#terminal-2311969643-line-30)">/Users/moraneus/Projects/</text><text class="terminal-2311969643-r15" x="878.4" y="752" textLength="122" clip-path="url(#terminal-2311969643-line-30)">pymenu-cli</text><text class="terminal-2311969643-r1" x="1464" y="752" textLength="12.2" clip-path="url(#terminal-2311969643-line-30)">
</text><text class="terminal-2311969643-r6" x="353.8" y="776.4" textLength="12.2" clip-path="url(#terminal-2311969643-line-31)">│</text><text class="terminal-2311969643-r7" x="378.2" y="776.4" textLength="195.2" clip-path="url(#terminal-2311969643-line-31)">&#160;&#160;Home&#160;&#160;&#160;&#160;&#160;&#160;&#160;&#160;:&#160;</text><text class="terminal-2311969643-r15" x="573.4" y="776.4" textLength="85.4" clip-path="url(#terminal-2311969643-line-31)">/Users/</text><text class="terminal-2311969643-r15" x="658.8" y="776.4" textLength="97.6" clip-path="url(#terminal-2311969643-line-31)">moraneus</text><text class="terminal-2311969643-r1" x="1464" y="776.4" textLength="12.2" clip-path="url(#terminal-2311969643-line-31)">
</text><text class="terminal-2311969643-r6" x="353.8" y="800.8" textLength="12.2" clip-path="url(#terminal-2311969643-line-32)">│</text><text class="terminal-2311969643-r7" x="378.2" y="800.8" textLength="292.8" clip-path="url(#terminal-2311969643-line-32)">&#160;&#160;User&#160;&#160;&#160;&#160;&#160;&#160;&#160;&#160;:&#160;moraneus</text><text class="terminal-2311969643-r1" x="1464" y="800.8" textLength="12.2" clip-path="url(#terminal-2311969643-line-32)">
</text><text class="terminal-2311969643-r6" x="353.8" y="825.2" textLength="12.2" clip-path="url(#terminal-2311969643-line-33)">│</text><text class="terminal-2311969643-r1" x="1464" y="825.2" textLength="12.2" clip-path="url(#terminal-2311969643-line-33)">
</text><text class="terminal-2311969643-r16" x="0" y="849.6" textLength="36.6" clip-path="url(#terminal-2311969643-line-34)">&#160;q&#160;</text><text class="terminal-2311969643-r7" x="36.6" y="849.6" textLength="61" clip-path="url(#terminal-2311969643-line-34)">Quit&#160;</text><text class="terminal-2311969643-r16" x="97.6" y="849.6" textLength="61" clip-path="url(#terminal-2311969643-line-34)">&#160;esc&#160;</text><text class="terminal-2311969643-r7" x="158.6" y="849.6" textLength="61" clip-path="url(#terminal-2311969643-line-34)">Back&#160;</text><text class="terminal-2311969643-r16" x="219.6" y="849.6" textLength="36.6" clip-path="url(#terminal-2311969643-line-34)">&#160;/&#160;</text><text class="terminal-2311969643-r7" x="256.2" y="849.6" textLength="85.4" clip-path="url(#terminal-2311969643-line-34)">Search&#160;</text><text class="terminal-2311969643-r16" x="341.6" y="849.6" textLength="36.6" clip-path="url(#terminal-2311969643-line-34)">&#160;t&#160;</text><text class="terminal-2311969643-r7" x="378.2" y="849.6" textLength="73.2" clip-path="url(#terminal-2311969643-line-34)">Theme&#160;</text><text class="terminal-2311969643-r17" x="1317.6" y="849.6" textLength="12.2" clip-path="url(#terminal-2311969643-line-34)">▏</text><text class="terminal-2311969643-r16" x="1329.8" y="849.6" textLength="24.4" clip-path="url(#terminal-2311969643-line-34)">^p</text><text class="terminal-2311969643-r7" x="1354.2" y="849.6" textLength="97.6" clip-path="url(#terminal-2311969643-line-34)">&#160;palette</text>
    </g>
    </g>
</svg>
